<?xml version="1.0" standalone="no"?>
<!DOCTYPE svg PUBLIC "-//W3C//DTD SVG 20010904//EN"
 "http://www.w3.org/TR/2001/REC-SVG-20010904/DTD/svg10.dtd">
<svg version="1.0" xmlns="http://www.w3.org/2000/svg"
 width="634.000000pt" height="393.000000pt" viewBox="0 0 634.000000 393.000000"
 preserveAspectRatio="xMidYMid meet">

<g transform="translate(0.000000,393.000000) scale(0.100000,-0.100000)"
fill="#000000" stroke="none">
<path d="M2150 3387 c-36 -12 -89 -39 -118 -61 -41 -30 -60 -37 -85 -34 l-32
3 6 -195 c7 -214 15 -410 29 -745 5 -121 12 -283 15 -360 11 -298 25 -622 29
-657 2 -20 -1 -44 -8 -52 -11 -14 -225 -56 -287 -56 -26 0 -29 3 -29 33 0 17
-4 120 -10 227 -5 107 -12 263 -15 345 -3 83 -12 292 -20 465 -8 173 -17 394
-21 490 -3 96 -9 232 -13 301 -3 69 -5 133 -3 141 4 19 5 19 180 49 132 22
133 22 100 36 -71 31 -241 -3 -306 -61 -29 -25 -56 -76 -71 -133 -21 -77 -15
-364 29 -1413 14 -330 26 -447 47 -479 10 -14 16 -31 15 -37 -1 -7 8 -13 20
-13 66 -5 231 -1 288 7 46 7 67 6 72 -2 5 -7 8 -6 8 4 0 8 22 27 49 43 40 22
61 27 117 27 71 0 210 32 241 56 17 12 16 13 -12 13 -16 0 -64 -6 -105 -14
-41 -7 -79 -9 -84 -5 -8 8 -17 153 -30 495 -4 88 -13 306 -21 485 -8 179 -17
395 -20 480 -3 85 -10 243 -16 350 -7 153 -6 197 3 206 7 6 49 17 93 24 44 6
102 16 129 22 48 10 49 11 25 24 -36 20 -116 16 -189 -9z"/>
<path d="M2421 3215 c0 -38 4 -146 9 -240 5 -93 11 -262 14 -375 10 -340 45
-1062 52 -1069 2 -2 4 74 4 171 0 198 10 266 49 323 36 54 74 73 169 86 90 12
151 4 230 -31 24 -11 55 -20 68 -20 25 0 64 35 64 57 0 7 6 13 14 13 8 0 16 5
18 12 3 8 16 5 41 -11 20 -12 37 -26 37 -30 0 -4 19 -18 41 -30 34 -19 51 -23
93 -18 51 6 132 34 123 43 -3 3 -33 0 -67 -6 -83 -15 -87 -11 -92 105 -1 51
-6 96 -9 99 -3 3 -140 -17 -304 -45 -164 -27 -307 -49 -319 -47 -19 3 -22 12
-28 118 -6 85 -4 118 5 127 7 7 188 42 402 78 215 36 401 69 415 73 l25 9 -24
13 c-48 25 -202 11 -561 -51 -86 -15 -253 -65 -303 -90 -47 -24 -79 -19 -95
16 -18 39 -31 176 -43 455 -11 264 -26 405 -28 265z"/>
<path d="M3537 2387 c6 -100 11 -106 12 -15 1 42 -3 79 -8 82 -4 3 -6 -27 -4
-67z"/>
<path d="M4129 1953 c-8 -2 -35 -44 -59 -93 -24 -50 -47 -90 -51 -90 -4 0 -33
36 -66 80 -48 66 -63 79 -86 80 l-28 0 23 -32 c12 -18 48 -67 79 -109 49 -67
57 -85 63 -138 7 -61 11 -66 40 -55 13 5 14 17 9 64 -5 56 -3 63 51 175 31 65
56 119 56 121 0 4 -7 4 -31 -3z"/>
<path d="M3645 1908 c-43 -5 -81 -11 -83 -13 -7 -7 18 -274 33 -350 7 -38 16
-113 20 -165 4 -52 12 -106 17 -119 9 -24 10 -24 107 -17 108 7 134 13 128 30
-2 7 -37 11 -98 11 l-93 0 -7 37 c-8 54 16 78 79 78 27 0 57 6 68 14 18 14 18
15 1 22 -10 3 -44 4 -76 1 -32 -2 -64 -2 -70 2 -6 4 -14 25 -18 46 -7 45 12
65 63 65 18 0 56 5 84 11 44 9 51 14 48 32 -3 21 -7 22 -73 18 -38 -3 -86 -5
-105 -5 l-35 -1 -3 51 c-3 58 4 63 83 64 61 0 85 10 85 32 0 19 -5 20 -72 13
-40 -3 -80 -8 -89 -11 -13 -4 -18 6 -23 46 -8 62 -4 70 38 70 18 0 61 3 95 6
50 6 61 10 61 25 0 22 -28 23 -165 7z"/>
<path d="M3265 1803 c4 -43 13 -130 21 -193 8 -63 21 -175 29 -248 8 -73 17
-138 21 -144 8 -12 179 -2 207 13 36 20 5 29 -71 23 -60 -5 -80 -3 -89 7 -11
13 -40 255 -32 263 2 3 42 8 89 13 79 7 85 10 88 31 3 21 1 23 -25 19 -15 -3
-58 -9 -95 -12 l-67 -6 -5 33 c-3 18 -10 84 -16 147 -6 63 -13 118 -16 123 -3
4 -14 8 -26 8 -19 0 -20 -4 -13 -77z"/>
<path d="M2981 1848 c-47 -5 -85 -9 -86 -11 -3 -6 32 -344 38 -357 3 -8 11
-71 17 -140 14 -150 17 -162 38 -158 12 2 19 17 22 47 4 39 9 46 35 53 44 12
70 2 111 -42 59 -64 85 -51 38 19 l-25 39 25 37 c31 46 34 97 7 142 -17 27
-18 32 -5 37 12 5 5 18 -30 58 l-46 53 30 23 c35 28 47 76 30 127 -21 65 -75
85 -199 73z m119 -53 c37 -19 48 -66 25 -101 -19 -30 -43 -40 -112 -46 -45 -4
-53 -3 -53 12 0 9 -3 44 -6 78 -6 58 -6 60 17 65 51 9 101 6 129 -8z m8 -224
c18 -22 32 -41 32 -43 0 -2 -37 -3 -83 -3 l-82 0 -3 37 c-3 33 -1 37 25 41 70
10 79 8 111 -32z m36 -102 c23 -18 27 -28 24 -62 -4 -50 -33 -74 -102 -84 -62
-8 -76 8 -76 88 0 68 11 78 81 79 32 0 54 -6 73 -21z"/>
<path d="M2633 1808 c-5 -7 -27 -60 -48 -118 -21 -58 -42 -111 -47 -117 -6 -7
-8 -13 -4 -13 3 0 -3 -23 -14 -50 -25 -64 -25 -62 8 -58 22 2 30 11 41 45 17
47 20 48 131 58 l75 7 18 -36 c18 -38 37 -52 61 -43 11 5 -8 46 -78 169 -93
163 -117 189 -143 156z m80 -139 l37 -66 -38 -7 c-20 -3 -53 -6 -73 -6 l-36 0
25 85 c29 97 29 97 85 -6z"/>
<path d="M4112 1543 c-21 -45 -44 -79 -54 -81 -10 -2 -37 22 -73 67 -51 65
-85 89 -85 60 0 -6 26 -48 59 -92 72 -101 81 -118 81 -154 0 -35 22 -69 38
-59 7 4 12 32 12 66 0 48 8 75 45 156 50 107 52 114 30 114 -10 0 -30 -31 -53
-77z"/>
<path d="M2667 1468 c-19 -30 -107 -284 -107 -309 0 -31 29 -22 44 15 18 43
35 52 116 60 78 8 96 3 116 -35 15 -29 54 -41 54 -16 0 6 -38 77 -84 157 -89
154 -110 174 -139 128z m54 -70 c1 -7 1 -17 0 -21 -1 -5 2 -6 7 -3 13 8 46
-69 39 -88 -5 -12 -21 -16 -62 -16 -50 0 -55 2 -55 23 0 43 33 117 52 117 10
0 19 -6 19 -12z"/>
</g>
</svg>
